# xmcd CD database file
#
# Track frame offsets:
#	150
#	14966
#	36783
#	56284
#	74458
#	95104
#	118331
#	138114
#	159614
#	178557
#	203164
#	228199
#	242590
#
# Disc length: 3510 seconds
#
# Revision: 0
# Processed by: cddbd v1.5.1PL2 Copyright (c) Steve Scherf et al.
# Submitted via: CD2WAV32(JP) R3.22
#
DISCID=b50db40d
DTITLE=アニメ - 機動戦士ガンダム SEED DESTINY COMPLETE BEST
DYEAR=2005
DGENRE=Anime
TTITLE0=ignited -イグナイテッド-
TTITLE1=Reason
TTITLE2=PRIDE
TTITLE3=Life Goes On
TTITLE4=僕たちの行方
TTITLE5=I Wanna Go To A Place...
TTITLE6=Wings of Words
TTITLE7=君は僕に似ている
TTITLE8=Meteor -ミーティア-
TTITLE9=vestige -ヴェスティージ-
TTITLE10=Reason -NYLON Stay Cool Mix-
TTITLE11=PRIDE ～"Phantom pain“norishirobreakmegamix～
TTITLE12=Wings of Words (alas de palabras)
EXTD=
EXTT0=
EXTT1=
EXTT2=
EXTT3=
EXTT4=
EXTT5=
EXTT6=
EXTT7=
EXTT8=
EXTT9=
EXTT10=
EXTT11=
EXTT12=
PLAYORDER=
